# xmcd
#
# Track frame offsets:
# 150
# 15917
# 30544
# 45396
# 60948
# 76113
# 89565
# 105799
# 121714
# 137116
# 152530
# 168140
# 182272
# 198662
# 214826
# 228028
# 243350
# 257102
# 271629
# 284894
# 299746
# 313473
#
# Disc length: 4375 seconds
#
# Revision: 0
# Processed by: cddbd v1.5PL3 Copyright (c) Steve Scherf et al.
# Submitted via: Audion 3.0.2 (http://www.panic.com/audion/)
#
DISCID=20111516
DTITLE=duke ellington - complete columbia and rca victor CD3
DYEAR=1900
DGENRE=
TTITLE0=a lull at dawa
TTITLE1=ready eddy
TTITLE2=the sidewalks of new york
TTITLE3=flamingo
TTITLE4=the girl in my dreams tries
TTITLE5=take the  A train
TTITLE6=jumpin' punkins
TTITLE7=john hardy's wife
TTITLE8=blues serge
TTITLE9=after all
TTITLE10=barkiff
TTITLE11=are you sticking
TTITLE12=just a-sittin' and a-rockin'
TTITLE13=the gyddybug gallop
TTITLE14=chocolate shake
TTITLE15=I got it bad
TTITLE16=clementine
TTITLE17=the brown skin gal
TTITLE18=jump for joy
TTITLE19=moon over cuba
TTITLE20=some saturday
TTITLE21=subtle slought
EXTD=
EXTT0=
EXTT1=
EXTT2=
EXTT3=
EXTT4=
EXTT5=
EXTT6=
EXTT7=
EXTT8=
EXTT9=
EXTT10=
EXTT11=
EXTT12=
EXTT13=
EXTT14=
EXTT15=
EXTT16=
EXTT17=
EXTT18=
EXTT19=
EXTT20=
EXTT21=
PLAYORDER=
